<mxfile host="app.diagrams.net" modified="2023-05-17T05:43:31.347Z" agent="Mozilla/5.0 (Windows NT 10.0; Win64; x64) AppleWebKit/537.36 (KHTML, like Gecko) Chrome/113.0.0.0 Safari/537.36 Edg/113.0.1774.42" etag="87oayXymmaGlfCpcbRn4" version="21.3.2" type="github">
  <diagram name="第 1 页" id="F0xyDwyME1ExtGgyUF2Y">
    <mxGraphModel dx="1219" dy="829" grid="0" gridSize="10" guides="1" tooltips="1" connect="1" arrows="1" fold="1" page="1" pageScale="1" pageWidth="827" pageHeight="1169" math="0" shadow="0">
      <root>
        <mxCell id="0" />
        <mxCell id="1" parent="0" />
        <mxCell id="9JYBbmjU2PvkGSPOpC-c-3" value="未注册用户" style="shape=umlActor;verticalLabelPosition=bottom;verticalAlign=top;html=1;outlineConnect=0;" vertex="1" parent="1">
          <mxGeometry x="130" y="120" width="30" height="60" as="geometry" />
        </mxCell>
        <mxCell id="9JYBbmjU2PvkGSPOpC-c-6" value="注册用户" style="shape=umlActor;verticalLabelPosition=bottom;verticalAlign=top;html=1;outlineConnect=0;" vertex="1" parent="1">
          <mxGeometry x="114" y="355" width="30" height="60" as="geometry" />
        </mxCell>
        <mxCell id="9JYBbmjU2PvkGSPOpC-c-8" value="医院信息查看" style="ellipse;whiteSpace=wrap;html=1;" vertex="1" parent="1">
          <mxGeometry x="294" y="40" width="86" height="50" as="geometry" />
        </mxCell>
        <mxCell id="9JYBbmjU2PvkGSPOpC-c-9" value="" style="endArrow=classic;html=1;rounded=0;entryX=0;entryY=0.5;entryDx=0;entryDy=0;" edge="1" parent="1" source="9JYBbmjU2PvkGSPOpC-c-3" target="9JYBbmjU2PvkGSPOpC-c-8">
          <mxGeometry width="50" height="50" relative="1" as="geometry">
            <mxPoint x="390" y="450" as="sourcePoint" />
            <mxPoint x="440" y="400" as="targetPoint" />
          </mxGeometry>
        </mxCell>
        <mxCell id="9JYBbmjU2PvkGSPOpC-c-10" value="" style="endArrow=classic;html=1;rounded=0;entryX=0;entryY=0.5;entryDx=0;entryDy=0;" edge="1" parent="1" source="9JYBbmjU2PvkGSPOpC-c-3" target="9JYBbmjU2PvkGSPOpC-c-12">
          <mxGeometry width="50" height="50" relative="1" as="geometry">
            <mxPoint x="390" y="450" as="sourcePoint" />
            <mxPoint x="290" y="130" as="targetPoint" />
          </mxGeometry>
        </mxCell>
        <mxCell id="9JYBbmjU2PvkGSPOpC-c-12" value="科室查看" style="ellipse;whiteSpace=wrap;html=1;" vertex="1" parent="1">
          <mxGeometry x="294" y="100" width="86" height="50" as="geometry" />
        </mxCell>
        <mxCell id="9JYBbmjU2PvkGSPOpC-c-23" value="" style="endArrow=classic;html=1;rounded=0;entryX=0;entryY=0.5;entryDx=0;entryDy=0;" edge="1" parent="1" source="9JYBbmjU2PvkGSPOpC-c-3" target="9JYBbmjU2PvkGSPOpC-c-24">
          <mxGeometry width="50" height="50" relative="1" as="geometry">
            <mxPoint x="390" y="450" as="sourcePoint" />
            <mxPoint x="290" y="190" as="targetPoint" />
          </mxGeometry>
        </mxCell>
        <mxCell id="9JYBbmjU2PvkGSPOpC-c-24" value="预约时间查看" style="ellipse;whiteSpace=wrap;html=1;" vertex="1" parent="1">
          <mxGeometry x="294" y="160" width="86" height="50" as="geometry" />
        </mxCell>
        <mxCell id="9JYBbmjU2PvkGSPOpC-c-25" value="" style="endArrow=classic;html=1;rounded=0;entryX=0.07;entryY=0.4;entryDx=0;entryDy=0;entryPerimeter=0;" edge="1" parent="1" source="9JYBbmjU2PvkGSPOpC-c-3" target="9JYBbmjU2PvkGSPOpC-c-26">
          <mxGeometry width="50" height="50" relative="1" as="geometry">
            <mxPoint x="390" y="450" as="sourcePoint" />
            <mxPoint x="290" y="240" as="targetPoint" />
          </mxGeometry>
        </mxCell>
        <mxCell id="9JYBbmjU2PvkGSPOpC-c-26" value="注册登录" style="ellipse;whiteSpace=wrap;html=1;" vertex="1" parent="1">
          <mxGeometry x="294" y="220" width="86" height="50" as="geometry" />
        </mxCell>
        <mxCell id="9JYBbmjU2PvkGSPOpC-c-28" value="医院管理员" style="shape=umlActor;verticalLabelPosition=bottom;verticalAlign=top;html=1;outlineConnect=0;" vertex="1" parent="1">
          <mxGeometry x="460" y="110" width="30" height="60" as="geometry" />
        </mxCell>
        <mxCell id="9JYBbmjU2PvkGSPOpC-c-29" value="" style="endArrow=classic;html=1;rounded=0;" edge="1" parent="1">
          <mxGeometry width="50" height="50" relative="1" as="geometry">
            <mxPoint x="490" y="150" as="sourcePoint" />
            <mxPoint x="580" y="70" as="targetPoint" />
          </mxGeometry>
        </mxCell>
        <mxCell id="9JYBbmjU2PvkGSPOpC-c-30" value="上传医院信息" style="ellipse;whiteSpace=wrap;html=1;" vertex="1" parent="1">
          <mxGeometry x="580" y="50" width="86" height="50" as="geometry" />
        </mxCell>
        <mxCell id="9JYBbmjU2PvkGSPOpC-c-31" value="" style="endArrow=classic;html=1;rounded=0;entryX=0;entryY=0.5;entryDx=0;entryDy=0;" edge="1" parent="1" target="9JYBbmjU2PvkGSPOpC-c-32">
          <mxGeometry width="50" height="50" relative="1" as="geometry">
            <mxPoint x="490" y="150" as="sourcePoint" />
            <mxPoint x="580" y="120" as="targetPoint" />
          </mxGeometry>
        </mxCell>
        <mxCell id="9JYBbmjU2PvkGSPOpC-c-32" value="上传科室信息" style="ellipse;whiteSpace=wrap;html=1;" vertex="1" parent="1">
          <mxGeometry x="580" y="110" width="86" height="50" as="geometry" />
        </mxCell>
        <mxCell id="9JYBbmjU2PvkGSPOpC-c-35" value="" style="endArrow=classic;html=1;rounded=0;" edge="1" parent="1" source="9JYBbmjU2PvkGSPOpC-c-28">
          <mxGeometry width="50" height="50" relative="1" as="geometry">
            <mxPoint x="500" y="190" as="sourcePoint" />
            <mxPoint x="580" y="190" as="targetPoint" />
          </mxGeometry>
        </mxCell>
        <mxCell id="9JYBbmjU2PvkGSPOpC-c-36" value="上传排班信息" style="ellipse;whiteSpace=wrap;html=1;" vertex="1" parent="1">
          <mxGeometry x="580" y="170" width="86" height="50" as="geometry" />
        </mxCell>
        <mxCell id="9JYBbmjU2PvkGSPOpC-c-38" value="创建身份档案" style="ellipse;whiteSpace=wrap;html=1;" vertex="1" parent="1">
          <mxGeometry x="294" y="290" width="86" height="50" as="geometry" />
        </mxCell>
        <mxCell id="9JYBbmjU2PvkGSPOpC-c-39" value="选择医院科室" style="ellipse;whiteSpace=wrap;html=1;" vertex="1" parent="1">
          <mxGeometry x="294" y="360" width="86" height="50" as="geometry" />
        </mxCell>
        <mxCell id="9JYBbmjU2PvkGSPOpC-c-40" value="选择预约时间和医生" style="ellipse;whiteSpace=wrap;html=1;" vertex="1" parent="1">
          <mxGeometry x="294" y="430" width="86" height="50" as="geometry" />
        </mxCell>
        <mxCell id="9JYBbmjU2PvkGSPOpC-c-42" value="预约挂号" style="ellipse;whiteSpace=wrap;html=1;" vertex="1" parent="1">
          <mxGeometry x="294" y="495" width="86" height="50" as="geometry" />
        </mxCell>
        <mxCell id="9JYBbmjU2PvkGSPOpC-c-43" value="" style="endArrow=classic;html=1;rounded=0;exitX=1;exitY=0.3333333333333333;exitDx=0;exitDy=0;exitPerimeter=0;entryX=0;entryY=0.5;entryDx=0;entryDy=0;" edge="1" parent="1" source="9JYBbmjU2PvkGSPOpC-c-6" target="9JYBbmjU2PvkGSPOpC-c-38">
          <mxGeometry width="50" height="50" relative="1" as="geometry">
            <mxPoint x="384" y="360" as="sourcePoint" />
            <mxPoint x="434" y="310" as="targetPoint" />
          </mxGeometry>
        </mxCell>
        <mxCell id="9JYBbmjU2PvkGSPOpC-c-44" value="平台管理员" style="shape=umlActor;verticalLabelPosition=bottom;verticalAlign=top;html=1;outlineConnect=0;" vertex="1" parent="1">
          <mxGeometry x="460" y="340" width="30" height="60" as="geometry" />
        </mxCell>
        <mxCell id="9JYBbmjU2PvkGSPOpC-c-45" value="用户管理" style="ellipse;whiteSpace=wrap;html=1;" vertex="1" parent="1">
          <mxGeometry x="580" y="290" width="86" height="50" as="geometry" />
        </mxCell>
        <mxCell id="9JYBbmjU2PvkGSPOpC-c-46" value="医院设置管理" style="ellipse;whiteSpace=wrap;html=1;" vertex="1" parent="1">
          <mxGeometry x="580" y="360" width="86" height="50" as="geometry" />
        </mxCell>
        <mxCell id="9JYBbmjU2PvkGSPOpC-c-47" value="管理数据字典" style="ellipse;whiteSpace=wrap;html=1;" vertex="1" parent="1">
          <mxGeometry x="580" y="425" width="86" height="50" as="geometry" />
        </mxCell>
        <mxCell id="9JYBbmjU2PvkGSPOpC-c-48" value="订单管理统计" style="ellipse;whiteSpace=wrap;html=1;" vertex="1" parent="1">
          <mxGeometry x="580" y="490" width="86" height="50" as="geometry" />
        </mxCell>
        <mxCell id="9JYBbmjU2PvkGSPOpC-c-50" value="" style="endArrow=classic;html=1;rounded=0;exitX=1;exitY=0.3333333333333333;exitDx=0;exitDy=0;exitPerimeter=0;entryX=0.012;entryY=0.64;entryDx=0;entryDy=0;entryPerimeter=0;" edge="1" parent="1" source="9JYBbmjU2PvkGSPOpC-c-44" target="9JYBbmjU2PvkGSPOpC-c-45">
          <mxGeometry width="50" height="50" relative="1" as="geometry">
            <mxPoint x="330" y="370" as="sourcePoint" />
            <mxPoint x="380" y="320" as="targetPoint" />
          </mxGeometry>
        </mxCell>
        <mxCell id="9JYBbmjU2PvkGSPOpC-c-51" value="" style="endArrow=classic;html=1;rounded=0;entryX=0;entryY=0.5;entryDx=0;entryDy=0;" edge="1" parent="1" source="9JYBbmjU2PvkGSPOpC-c-44" target="9JYBbmjU2PvkGSPOpC-c-46">
          <mxGeometry width="50" height="50" relative="1" as="geometry">
            <mxPoint x="330" y="370" as="sourcePoint" />
            <mxPoint x="380" y="320" as="targetPoint" />
          </mxGeometry>
        </mxCell>
        <mxCell id="9JYBbmjU2PvkGSPOpC-c-52" value="" style="endArrow=classic;html=1;rounded=0;entryX=0;entryY=0.5;entryDx=0;entryDy=0;" edge="1" parent="1" target="9JYBbmjU2PvkGSPOpC-c-47">
          <mxGeometry width="50" height="50" relative="1" as="geometry">
            <mxPoint x="490" y="370" as="sourcePoint" />
            <mxPoint x="380" y="320" as="targetPoint" />
          </mxGeometry>
        </mxCell>
        <mxCell id="9JYBbmjU2PvkGSPOpC-c-53" value="" style="endArrow=classic;html=1;rounded=0;entryX=0;entryY=0.5;entryDx=0;entryDy=0;" edge="1" parent="1" target="9JYBbmjU2PvkGSPOpC-c-48">
          <mxGeometry width="50" height="50" relative="1" as="geometry">
            <mxPoint x="490" y="380" as="sourcePoint" />
            <mxPoint x="380" y="320" as="targetPoint" />
          </mxGeometry>
        </mxCell>
        <mxCell id="9JYBbmjU2PvkGSPOpC-c-54" value="" style="endArrow=classic;html=1;rounded=0;exitX=1;exitY=0.3333333333333333;exitDx=0;exitDy=0;exitPerimeter=0;entryX=0;entryY=0.5;entryDx=0;entryDy=0;" edge="1" parent="1" source="9JYBbmjU2PvkGSPOpC-c-6" target="9JYBbmjU2PvkGSPOpC-c-39">
          <mxGeometry width="50" height="50" relative="1" as="geometry">
            <mxPoint x="384" y="360" as="sourcePoint" />
            <mxPoint x="434" y="310" as="targetPoint" />
          </mxGeometry>
        </mxCell>
        <mxCell id="9JYBbmjU2PvkGSPOpC-c-55" value="" style="endArrow=classic;html=1;rounded=0;exitX=1;exitY=0.3333333333333333;exitDx=0;exitDy=0;exitPerimeter=0;entryX=0;entryY=0.5;entryDx=0;entryDy=0;" edge="1" parent="1" source="9JYBbmjU2PvkGSPOpC-c-6" target="9JYBbmjU2PvkGSPOpC-c-40">
          <mxGeometry width="50" height="50" relative="1" as="geometry">
            <mxPoint x="384" y="360" as="sourcePoint" />
            <mxPoint x="434" y="310" as="targetPoint" />
          </mxGeometry>
        </mxCell>
        <mxCell id="9JYBbmjU2PvkGSPOpC-c-56" value="" style="endArrow=classic;html=1;rounded=0;exitX=1;exitY=0.3333333333333333;exitDx=0;exitDy=0;exitPerimeter=0;entryX=0;entryY=0.5;entryDx=0;entryDy=0;" edge="1" parent="1" source="9JYBbmjU2PvkGSPOpC-c-6" target="9JYBbmjU2PvkGSPOpC-c-42">
          <mxGeometry width="50" height="50" relative="1" as="geometry">
            <mxPoint x="384" y="360" as="sourcePoint" />
            <mxPoint x="434" y="310" as="targetPoint" />
          </mxGeometry>
        </mxCell>
      </root>
    </mxGraphModel>
  </diagram>
</mxfile>
